<svg width="32" height="32" viewBox="0 0 32 32" fill="none" xmlns="http://www.w3.org/2000/svg">
<path d="M23.3783 7.88387H21.1648V7.14604C21.1648 6.95035 21.0871 6.76268 20.9487 6.62431C20.8103 6.48594 20.6227 6.4082 20.427 6.4082C20.2313 6.4082 20.0436 6.48594 19.9052 6.62431C19.7669 6.76268 19.6891 6.95035 19.6891 7.14604V7.88387H12.3108V7.14604C12.3108 6.95035 12.2331 6.76268 12.0947 6.62431C11.9563 6.48594 11.7687 6.4082 11.573 6.4082C11.3773 6.4082 11.1896 6.48594 11.0513 6.62431C10.9129 6.76268 10.8352 6.95035 10.8352 7.14604V7.88387H8.62166C8.23029 7.88387 7.85495 8.03934 7.57821 8.31608C7.30147 8.59282 7.146 8.96816 7.146 9.35953V24.1162C7.146 24.5075 7.30147 24.8829 7.57821 25.1596C7.85495 25.4364 8.23029 25.5918 8.62166 25.5918H23.3783C23.7697 25.5918 24.145 25.4364 24.4218 25.1596C24.6985 24.8829 24.854 24.5075 24.854 24.1162V9.35953C24.854 8.96816 24.6985 8.59282 24.4218 8.31608C24.145 8.03934 23.7697 7.88387 23.3783 7.88387ZM11.9419 21.9027C11.723 21.9027 11.509 21.8378 11.327 21.7162C11.145 21.5945 11.0032 21.4217 10.9194 21.2195C10.8356 21.0172 10.8137 20.7947 10.8564 20.58C10.8991 20.3653 11.0045 20.1681 11.1593 20.0133C11.3141 19.8586 11.5113 19.7532 11.726 19.7104C11.9407 19.6677 12.1632 19.6897 12.3654 19.7734C12.5677 19.8572 12.7405 19.999 12.8621 20.1811C12.9837 20.3631 13.0487 20.577 13.0487 20.7959C13.0487 21.0895 12.932 21.371 12.7245 21.5785C12.5169 21.7861 12.2354 21.9027 11.9419 21.9027ZM16 21.9027C15.7811 21.9027 15.5671 21.8378 15.3851 21.7162C15.2031 21.5945 15.0612 21.4217 14.9775 21.2195C14.8937 21.0172 14.8718 20.7947 14.9145 20.58C14.9572 20.3653 15.0626 20.1681 15.2174 20.0133C15.3722 19.8586 15.5694 19.7532 15.7841 19.7104C15.9988 19.6677 16.2213 19.6897 16.4235 19.7734C16.6257 19.8572 16.7986 19.999 16.9202 20.1811C17.0418 20.3631 17.1067 20.577 17.1067 20.7959C17.1067 21.0895 16.9901 21.371 16.7826 21.5785C16.575 21.7861 16.2935 21.9027 16 21.9027ZM16 18.2135C15.7811 18.2135 15.5671 18.1486 15.3851 18.027C15.2031 17.9054 15.0612 17.7325 14.9775 17.5303C14.8937 17.3281 14.8718 17.1055 14.9145 16.8909C14.9572 16.6762 15.0626 16.479 15.2174 16.3242C15.3722 16.1694 15.5694 16.064 15.7841 16.0213C15.9988 15.9786 16.2213 16.0005 16.4235 16.0843C16.6257 16.168 16.7986 16.3099 16.9202 16.4919C17.0418 16.6739 17.1067 16.8879 17.1067 17.1068C17.1067 17.4003 16.9901 17.6818 16.7826 17.8894C16.575 18.0969 16.2935 18.2135 16 18.2135ZM20.0581 21.9027C19.8392 21.9027 19.6252 21.8378 19.4432 21.7162C19.2612 21.5945 19.1193 21.4217 19.0356 21.2195C18.9518 21.0172 18.9299 20.7947 18.9726 20.58C19.0153 20.3653 19.1207 20.1681 19.2755 20.0133C19.4303 19.8586 19.6275 19.7532 19.8421 19.7104C20.0568 19.6677 20.2794 19.6897 20.4816 19.7734C20.6838 19.8572 20.8567 19.999 20.9783 20.1811C21.0999 20.3631 21.1648 20.577 21.1648 20.7959C21.1648 21.0895 21.0482 21.371 20.8406 21.5785C20.6331 21.7861 20.3516 21.9027 20.0581 21.9027ZM20.0581 18.2135C19.8392 18.2135 19.6252 18.1486 19.4432 18.027C19.2612 17.9054 19.1193 17.7325 19.0356 17.5303C18.9518 17.3281 18.9299 17.1055 18.9726 16.8909C19.0153 16.6762 19.1207 16.479 19.2755 16.3242C19.4303 16.1694 19.6275 16.064 19.8421 16.0213C20.0568 15.9786 20.2794 16.0005 20.4816 16.0843C20.6838 16.168 20.8567 16.3099 20.9783 16.4919C21.0999 16.6739 21.1648 16.8879 21.1648 17.1068C21.1648 17.4003 21.0482 17.6818 20.8406 17.8894C20.6331 18.0969 20.3516 18.2135 20.0581 18.2135ZM23.3783 12.3109H8.62166V9.35953H10.8352V10.0974C10.8352 10.293 10.9129 10.4807 11.0513 10.6191C11.1896 10.7575 11.3773 10.8352 11.573 10.8352C11.7687 10.8352 11.9563 10.7575 12.0947 10.6191C12.2331 10.4807 12.3108 10.293 12.3108 10.0974V9.35953H19.6891V10.0974C19.6891 10.293 19.7669 10.4807 19.9052 10.6191C20.0436 10.7575 20.2313 10.8352 20.427 10.8352C20.6227 10.8352 20.8103 10.7575 20.9487 10.6191C21.0871 10.4807 21.1648 10.293 21.1648 10.0974V9.35953H23.3783V12.3109Z" fill="#22070B"/>
</svg>
