<svg width="20" height="20" viewBox="0 0 20 20" fill="none" xmlns="http://www.w3.org/2000/svg">
<g clip-path="url(#clip0_17951_11789)">
<path fill-rule="evenodd" clip-rule="evenodd" d="M1.875 10C1.875 7.84511 2.73102 5.77849 4.25476 4.25476C5.77849 2.73102 7.84511 1.875 10 1.875C12.1549 1.875 14.2215 2.73102 15.7452 4.25476C17.269 5.77849 18.125 7.84511 18.125 10C18.125 12.1549 17.269 14.2215 15.7452 15.7452C14.2215 17.269 12.1549 18.125 10 18.125C7.84511 18.125 5.77849 17.269 4.25476 15.7452C2.73102 14.2215 1.875 12.1549 1.875 10ZM10 0C7.34784 0 4.8043 1.05357 2.92894 2.92894C1.05357 4.8043 0 7.34784 0 10C0 12.6521 1.05357 15.1958 2.92894 17.0711C4.8043 18.9464 7.34784 20 10 20C12.6521 20 15.1958 18.9464 17.0711 17.0711C18.9464 15.1958 20 12.6521 20 10C20 7.34784 18.9464 4.8043 17.0711 2.92894C15.1958 1.05357 12.6521 0 10 0ZM10.625 5.9375C10.625 5.68886 10.5262 5.4504 10.3504 5.27459C10.1746 5.09877 9.93614 5 9.6875 5C9.43886 5 9.2004 5.09877 9.02459 5.27459C8.84877 5.4504 8.75 5.68886 8.75 5.9375V10.3125C8.75004 10.4997 8.80615 10.6826 8.91107 10.8377C9.01601 10.9928 9.16496 11.1129 9.33875 11.1825L12.4637 12.4325C12.6926 12.5161 12.9451 12.5072 13.1676 12.4079C13.3901 12.3085 13.5652 12.1264 13.6557 11.9002C13.7462 11.6739 13.7451 11.4213 13.6526 11.1959C13.5601 10.9704 13.3834 10.7899 13.16 10.6925L10.625 9.6775V5.9375Z" fill="#22070B"/>
</g>
<defs>
<clipPath id="clip0_17951_11789">
<rect width="20" height="20" fill="white"/>
</clipPath>
</defs>
</svg>
